<?xml version="1.0" standalone="no"?>
<!DOCTYPE svg PUBLIC "-//W3C//DTD SVG 20010904//EN"
 "http://www.w3.org/TR/2001/REC-SVG-20010904/DTD/svg10.dtd">
<svg version="1.0" xmlns="http://www.w3.org/2000/svg"
 width="1280.000000pt" height="1085.000000pt" viewBox="0 0 1280.000000 1085.000000"
 preserveAspectRatio="xMidYMid meet">
<metadata>
Created by potrace 1.15, written by Peter Selinger 2001-2017
</metadata>
<g transform="translate(0.000000,1085.000000) scale(0.100000,-0.100000)"
fill="#ffffff" stroke="none">
<path d="M6010 10815 c-315 -20 -713 -80 -935 -141 -33 -9 -71 -19 -85 -21
-106 -21 -447 -135 -625 -208 -161 -66 -188 -78 -380 -176 -541 -273 -961
-583 -1430 -1053 -438 -438 -726 -832 -990 -1351 -130 -257 -204 -433 -285
-680 -16 -49 -36 -110 -45 -135 -8 -25 -24 -81 -36 -125 -11 -44 -28 -105 -36
-135 -8 -30 -18 -75 -23 -100 -5 -25 -17 -76 -25 -115 -9 -38 -20 -92 -24
-120 -21 -124 -50 -325 -56 -378 -7 -63 -7 -63 -297 -438 -507 -654 -688 -892
-688 -905 0 -11 19 -14 95 -14 52 0 95 -4 95 -8 0 -4 -14 -27 -31 -50 -17 -23
-28 -46 -24 -51 3 -6 27 -8 53 -5 106 11 797 22 809 12 6 -5 14 -32 18 -61 6
-53 11 -79 40 -227 71 -359 213 -818 330 -1068 14 -29 25 -55 25 -58 0 -17
146 -300 228 -444 329 -577 778 -1095 1334 -1543 445 -357 905 -625 1423 -827
11 -4 34 -13 50 -20 34 -14 162 -56 280 -93 428 -133 845 -203 1364 -228 442
-23 963 18 1386 108 153 32 337 78 415 103 14 4 52 16 85 25 120 36 358 124
520 194 105 44 436 215 555 286 689 409 1358 1040 1797 1695 162 241 342 570
438 800 15 36 35 83 45 105 41 90 150 404 190 545 7 25 18 65 25 90 8 25 21
77 29 115 9 39 21 88 26 110 37 158 79 403 95 557 6 57 8 59 364 525 196 258
419 549 494 647 75 99 134 183 131 188 -3 4 -106 8 -230 8 -123 0 -224 4 -224
8 0 4 20 37 45 72 25 35 45 70 45 77 0 16 -71 16 -400 3 -185 -8 -237 -7 -245
3 -7 6 -17 44 -24 82 -27 151 -93 440 -127 555 -44 149 -56 186 -94 294 -39
114 -52 149 -105 276 -66 161 -177 391 -250 519 -25 45 -57 103 -72 129 -43
79 -230 356 -316 470 -488 646 -1125 1197 -1812 1569 -184 100 -455 222 -632
287 -40 14 -103 37 -140 51 -169 61 -507 149 -713 186 -488 87 -955 115 -1430
84z m-780 -1062 c0 -4 -14 -22 -32 -40 -28 -29 -38 -33 -85 -33 -49 0 -63 -6
-183 -81 l-129 -81 -202 8 -202 7 -31 28 c-21 18 -28 31 -21 38 11 10 238 69
365 95 237 48 520 80 520 59z m1737 -209 c211 -71 503 -201 713 -319 154 -86
178 -101 300 -184 748 -505 1329 -1220 1649 -2029 103 -260 237 -732 213 -753
-4 -3 -180 -12 -392 -18 -579 -17 -721 -23 -718 -32 2 -4 100 -125 218 -269
118 -144 324 -396 458 -559 134 -163 269 -327 301 -366 50 -60 454 -553 809
-987 73 -90 111 -128 126 -128 30 0 33 -4 120 -117 43 -57 82 -103 86 -103 5
0 39 41 77 90 75 100 94 98 48 -6 -15 -32 -33 -75 -42 -94 -280 -630 -749
-1208 -1354 -1667 -244 -185 -560 -372 -814 -482 -27 -12 -59 -26 -70 -31
-192 -88 -532 -192 -820 -251 -138 -28 -528 -79 -606 -79 -32 0 -22 26 48 117
114 151 103 143 209 143 107 0 96 -9 175 134 l56 101 64 26 c35 14 107 41 159
59 52 18 100 37 107 42 12 9 27 68 39 148 6 43 18 57 238 278 l231 233 249
167 c136 92 258 176 270 187 19 17 24 42 39 180 10 88 23 197 28 242 11 81 10
84 -15 128 -15 25 -24 50 -21 55 11 18 122 99 176 129 l54 30 -3 143 -4 143
-88 85 c-48 47 -89 90 -91 95 -2 6 -88 76 -191 156 -182 141 -190 146 -265
163 -43 10 -98 24 -123 32 -25 7 -78 21 -119 30 -89 21 -97 27 -278 226 -74
81 -141 148 -149 148 -18 0 -59 25 -104 65 -25 22 -64 38 -139 59 l-103 29
-46 71 c-55 87 -66 96 -113 96 -32 0 -43 6 -65 35 l-26 35 -90 0 c-90 0 -90 0
-175 50 -47 28 -97 53 -112 56 -14 3 -47 17 -73 30 l-46 24 -243 -10 c-133 -5
-244 -12 -247 -15 -3 -3 -41 -56 -83 -118 l-77 -112 -59 1 c-89 1 -108 15
-179 131 -55 89 -63 108 -66 158 l-3 58 -100 32 c-55 18 -111 35 -125 38 -14
3 -34 13 -45 21 -19 14 -19 15 -1 68 18 54 18 55 -3 96 -11 22 -30 44 -42 47
-12 4 -62 7 -111 7 -89 0 -92 -1 -154 -47 -10 -7 -20 -6 -34 3 -12 7 -58 12
-125 12 -91 0 -107 3 -122 19 -36 43 -193 368 -193 402 0 6 27 49 60 96 33 46
60 92 60 102 0 10 -7 36 -16 56 l-15 38 58 59 c32 32 68 61 81 65 13 3 64 -3
114 -13 l90 -18 39 22 c24 14 47 20 61 17 17 -4 43 7 93 40 94 62 121 58 223
-33 117 -104 265 -268 297 -330 27 -51 34 -57 70 -64 32 -5 43 -3 56 12 13 16
18 16 30 5 17 -16 105 -29 113 -17 8 13 -39 234 -74 342 -16 52 -30 102 -30
111 0 10 37 46 83 81 46 34 103 89 128 122 36 48 58 65 119 95 l75 37 11 92
c11 103 5 93 122 194 62 53 78 74 101 128 l26 65 65 10 c36 6 70 14 76 17 5 4
26 29 44 57 24 35 42 51 57 51 37 0 109 37 130 66 l21 28 42 -38 c29 -26 47
-35 58 -30 10 4 33 12 52 19 29 11 48 34 117 141 45 71 82 138 82 149 1 12
-22 43 -53 74 l-54 54 -95 -13 c-52 -7 -99 -10 -104 -7 -16 10 -37 87 -27 96
5 5 65 16 134 26 144 19 189 28 283 57 90 27 96 35 86 95 -4 26 -8 56 -8 66
-1 10 -28 47 -61 81 -63 66 -60 58 -90 231 -12 68 -15 72 -83 143 -39 39 -75
72 -79 72 -4 0 -44 -18 -90 -40 -95 -47 -112 -50 -159 -28 -19 9 -60 28 -93
43 -63 30 -61 30 -218 1 -52 -9 -84 -20 -95 -33 -12 -14 -48 -26 -113 -38 -52
-10 -102 -21 -110 -26 -8 -4 -27 -36 -41 -71 -21 -53 -32 -66 -63 -81 -21 -10
-44 -16 -51 -13 -7 2 -24 29 -38 60 -22 48 -30 56 -61 61 -30 6 -41 2 -77 -26
-48 -38 -42 -39 -152 48 l-68 55 7 61 c4 34 11 67 16 74 5 6 66 22 135 35 122
22 127 24 146 55 14 24 28 34 55 38 97 15 159 28 174 36 11 6 19 28 23 62 6
46 3 61 -24 119 -33 69 -39 106 -19 126 7 7 15 33 18 60 l5 47 123 3 123 3 11
29 c12 35 12 35 75 14z m-4186 -883 c38 -41 51 -49 94 -56 59 -8 85 -21 85
-39 0 -7 -14 -45 -31 -84 l-31 -70 31 -66 c17 -36 31 -69 31 -72 0 -3 11 -27
24 -53 19 -39 25 -71 31 -168 l7 -119 54 -64 53 -63 -7 -141 c-4 -78 -7 -252
-7 -388 l0 -248 138 -138 c134 -134 138 -139 146 -192 16 -94 22 -112 90 -235
36 -66 73 -133 81 -149 8 -15 62 -64 120 -109 58 -44 122 -94 142 -110 31 -25
40 -28 53 -17 8 7 15 18 15 24 0 7 11 22 24 34 37 31 42 79 16 143 -37 91 -44
101 -82 126 -32 22 -39 34 -57 102 -23 83 -26 111 -13 111 21 0 44 -33 89
-130 99 -214 115 -242 156 -263 28 -14 63 -54 132 -151 83 -117 100 -135 145
-156 35 -16 82 -56 153 -129 l102 -106 216 -72 c194 -66 223 -73 293 -73 l79
0 124 -117 125 -117 134 -4 c133 -5 135 -5 154 -32 11 -16 20 -30 20 -33 0 -2
29 -56 64 -120 34 -63 66 -122 69 -131 8 -21 113 -69 222 -101 199 -59 189
-53 198 -113 10 -64 10 -64 -110 -160 -46 -36 -83 -67 -83 -69 0 -2 -9 -36
-19 -76 -61 -228 -62 -229 -52 -302 37 -280 43 -310 59 -328 9 -10 21 -31 27
-47 5 -16 30 -44 55 -62 45 -34 45 -34 53 -113 5 -44 14 -86 20 -94 7 -8 17
-31 22 -52 9 -33 34 -56 210 -194 345 -270 315 -243 315 -284 -1 -20 -7 -47
-15 -61 -17 -30 -19 -210 -4 -370 23 -243 23 -244 48 -276 21 -29 23 -38 16
-102 -7 -72 -11 -82 -58 -149 -20 -29 -34 -69 -47 -139 -11 -55 -25 -121 -31
-149 -18 -78 -32 -266 -33 -430 l-1 -150 -45 2 c-155 6 -605 88 -785 143 -196
61 -385 128 -540 193 -62 26 -320 156 -395 198 -516 290 -1034 748 -1399 1236
-341 456 -588 986 -725 1553 -42 175 -42 178 -15 184 22 4 183 9 824 25 216 5
250 8 253 22 1 8 -19 43 -45 76 -51 64 -251 327 -517 678 -88 115 -282 370
-431 565 -149 195 -407 534 -574 753 -166 218 -306 397 -311 397 -4 0 -125
-154 -270 -342 -144 -189 -266 -344 -271 -346 -38 -14 76 361 199 658 218 524
531 977 963 1394 89 86 168 156 174 156 6 0 32 -22 56 -49z m8719 -4177 c0 -9
-4 -33 -9 -53 -6 -20 -22 -83 -36 -141 -39 -154 -128 -427 -186 -570 -54 -134
-198 -433 -249 -515 -16 -27 -33 -58 -36 -67 -7 -19 -24 -25 -24 -8 0 5 8 24
18 42 10 18 29 58 41 88 13 30 39 88 57 128 19 41 34 77 34 81 0 5 11 33 24
62 57 131 165 481 211 684 31 137 31 138 94 222 48 65 61 75 61 47z"/>
</g>
</svg>
