<?xml version="1.0" standalone="no"?>
<!DOCTYPE svg PUBLIC "-//W3C//DTD SVG 20010904//EN"
 "http://www.w3.org/TR/2001/REC-SVG-20010904/DTD/svg10.dtd">
<svg version="1.0" xmlns="http://www.w3.org/2000/svg"
 width="1280.000000pt" height="879.000000pt" viewBox="0 0 1280.000000 879.000000"
 preserveAspectRatio="xMidYMid meet">
<metadata>
Created by potrace 1.15, written by Peter Selinger 2001-2017
</metadata>
<g transform="translate(0.000000,879.000000) scale(0.100000,-0.100000)"
fill="#ffffff" stroke="none">
<path d="M5105 8720 c-486 -126 -1679 -428 -2220 -562 l-530 -132 -227 -160
c-125 -89 -368 -259 -539 -378 l-312 -218 -640 0 -640 0 7 -2202 c5 -1212 9
-2204 9 -2205 1 -1 227 -5 503 -9 l500 -7 125 -114 c686 -633 764 -703 787
-703 8 0 41 26 75 58 34 32 139 130 232 217 94 88 426 402 739 699 312 297
588 556 612 575 58 44 121 52 187 23 25 -11 207 -124 404 -250 414 -265 491
-312 512 -312 19 0 84 70 184 199 45 58 127 151 183 208 90 91 105 103 136
103 60 0 119 -41 653 -455 143 -111 460 -351 705 -535 490 -367 596 -451 605
-481 11 -33 -34 -145 -96 -240 l-59 -90 0 -529 c0 -292 3 -530 7 -530 4 0 188
105 410 233 l404 232 -5 790 c-3 536 -8 805 -16 836 -8 34 -27 64 -68 110 -31
35 -307 297 -612 583 -305 287 -620 584 -699 662 l-145 141 -7 59 c-17 139 -6
307 22 325 24 15 70 10 105 -12 57 -35 64 -53 64 -161 l0 -98 785 -736 785
-736 0 -416 c0 -707 12 -1332 25 -1332 19 0 250 136 474 280 l210 135 1 1069
0 1068 -663 672 c-837 847 -971 987 -998 1043 -20 41 -21 56 -17 177 7 170 10
176 94 176 95 0 110 -18 118 -141 3 -52 7 -108 9 -125 2 -27 121 -151 835
-869 l832 -838 1 -851 c1 -910 9 -1429 22 -1443 12 -11 116 46 456 248 l291
173 0 1262 0 1261 -592 574 c-326 316 -875 850 -1220 1187 -345 336 -630 612
-633 612 -4 0 -125 -91 -269 -203 -321 -249 -322 -249 -371 -274 -22 -12 -87
-30 -144 -41 -58 -12 -111 -28 -119 -36 -10 -10 -16 -45 -20 -108 l-4 -93
-142 -105 c-77 -58 -325 -242 -551 -409 -518 -385 -566 -418 -633 -431 -30 -5
-262 -10 -540 -10 l-487 -1 -71 63 c-445 397 -712 642 -726 666 -29 49 -23 86
20 128 20 20 319 240 663 490 l626 454 6 378 c4 207 9 389 13 403 7 31 -2 26
619 359 603 323 665 359 665 381 0 33 -384 340 -424 339 -6 0 -132 -32 -281
-70z"/>
<path d="M6945 8773 c-53 -10 -123 -43 -265 -123 -250 -141 -450 -249 -1075
-580 -324 -172 -654 -348 -732 -393 l-143 -80 -2 -386 -3 -386 -255 -188
c-140 -104 -419 -308 -620 -454 -201 -146 -369 -269 -374 -274 -15 -14 294
-289 325 -289 19 0 178 103 479 311 249 172 388 259 414 259 33 0 81 -35 95
-69 8 -18 11 -45 7 -66 -9 -44 -27 -58 -446 -344 -179 -122 -336 -231 -350
-241 l-25 -20 48 -45 49 -45 465 0 465 0 67 47 c63 45 772 571 967 717 l91 68
6 247 c4 135 7 309 7 387 0 77 3 188 6 246 l7 106 50 23 49 24 47 -26 46 -26
6 -319 c3 -175 6 -321 7 -322 4 -8 128 11 167 25 22 7 65 33 95 56 30 24 149
117 264 207 242 188 360 270 391 270 63 0 234 -160 1674 -1570 481 -470 908
-886 948 -923 l73 -69 0 -1254 0 -1254 408 0 407 1 431 418 430 419 577 7 577
8 0 2149 0 2148 -517 0 -518 -1 -125 104 c-69 57 -170 138 -225 179 -55 42
-171 134 -257 205 -156 128 -158 129 -250 155 -113 32 -832 212 -1353 338
-209 51 -456 112 -550 136 -483 126 -1893 471 -1955 479 -25 4 -54 8 -65 9
-11 2 -29 1 -40 -1z"/>
<path d="M3573 3272 c-197 -182 -1345 -1277 -1456 -1389 l-99 -100 124 -105
c222 -189 651 -542 736 -606 72 -54 86 -61 101 -50 46 33 283 303 613 698 135
162 402 477 592 700 215 252 346 413 346 426 0 16 -51 54 -227 171 -241 159
-496 319 -562 352 l-39 21 -129 -118z m125 -304 l70 -68 -91 -91 -92 -90 60
-57 c33 -31 116 -99 183 -150 68 -52 122 -98 120 -102 -7 -19 -114 -160 -121
-160 -18 0 -401 281 -489 360 -57 50 -61 79 -20 136 35 47 292 296 303 292 4
-2 39 -33 77 -70z"/>
<path d="M5137 3208 c-41 -46 -251 -292 -468 -548 -216 -256 -517 -611 -669
-790 -152 -179 -318 -377 -370 -440 -52 -63 -146 -178 -210 -255 -126 -152
-190 -237 -190 -252 0 -14 222 -75 1069 -294 l204 -53 51 55 c68 73 619 788
755 979 41 58 156 211 256 340 361 468 505 660 505 675 0 22 -76 96 -141 137
-30 19 -192 139 -359 265 -168 126 -317 237 -331 247 l-27 17 -75 -83z m104
-288 c51 -26 119 -88 119 -108 0 -8 -16 -34 -35 -58 -53 -65 -135 -186 -135
-200 0 -7 42 -38 93 -69 172 -105 217 -139 217 -160 0 -26 -87 -175 -102 -175
-6 0 -99 53 -206 118 -276 165 -339 230 -297 308 33 62 284 364 301 364 3 0
23 -9 45 -20z"/>
<path d="M6183 2388 c-42 -57 -188 -247 -323 -423 -233 -303 -796 -1049 -998
-1323 l-94 -126 35 -12 c19 -7 145 -40 279 -74 133 -34 342 -89 463 -122 l220
-60 37 44 c40 45 469 709 668 1033 64 105 167 269 227 365 160 253 187 304
172 327 -39 60 -563 473 -600 473 -4 0 -43 -46 -86 -102z m174 -253 l55 -50
-36 -50 c-57 -80 -88 -134 -82 -144 3 -5 45 -36 94 -69 49 -33 94 -67 100 -74
17 -21 -83 -188 -113 -188 -13 0 -232 141 -308 199 -84 63 -93 108 -40 200 27
46 109 147 176 218 l40 42 30 -17 c16 -9 54 -39 84 -67z"/>
<path d="M1038 2329 c-194 -167 -408 -363 -407 -373 1 -17 519 -488 601 -547
l26 -19 44 36 c23 20 136 125 250 233 l208 196 -98 94 c-118 113 -358 332
-427 387 -53 43 -87 64 -104 64 -6 0 -48 -32 -93 -71z"/>
<path d="M1701 1486 c-152 -153 -149 -136 -48 -213 69 -53 746 -523 764 -530
7 -3 72 26 145 64 151 78 163 94 109 142 -243 212 -808 671 -826 671 -6 0 -71
-60 -144 -134z"/>
<path d="M6647 1183 c-219 -342 -397 -633 -397 -649 0 -13 231 4 371 26 l137
22 7 283 c7 276 1 465 -15 465 -5 0 -51 -66 -103 -147z"/>
<path d="M3290 654 c0 -39 427 -404 472 -404 14 0 246 179 251 195 4 9 -1 19
-13 25 -10 5 -162 48 -337 94 -370 98 -373 98 -373 90z"/>
<path d="M4730 254 c-18 -20 -37 -201 -24 -214 18 -18 174 -31 377 -33 l199
-2 34 40 c41 48 43 72 7 86 -55 21 -545 139 -576 139 -3 0 -10 -7 -17 -16z"/>
</g>
</svg>
